# xmcd
#
# Track frame offsets: 
#        150
#        26437
#        48086
#        73449
#        101036
#        129482
#        153937
#        181820
#        210153
#        237264
#        265687
#        297042
#
# Disc length: 4316 seconds
#
# Revision: 2
# Processed by: cddbd v1.5.2PL0 Copyright (c) Steve Scherf et al.
# Submitted via: ExactAudioCopyFreeDBPlugin 1.0
#
DISCID=9d10da0c
DTITLE=amazarashi - あまざらし 千分の一夜物語 スターライト
DYEAR=2015
DGENRE=Pop
TTITLE0=光、再考
TTITLE1=ムカデ
TTITLE2=空っぽの空に潰される
TTITLE3=隅田川
TTITLE4=無題
TTITLE5=さくら
TTITLE6=つじつま合わせに生まれた僕等
TTITLE7=古いSF映画
TTITLE8=夏を待っていました
TTITLE9=季節は次々死んでいく
TTITLE10=美しき思い出
TTITLE11=スターライト
EXTD=YEAR: 2015
EXTT0=
EXTT1=
EXTT2=
EXTT3=
EXTT4=
EXTT5=
EXTT6=
EXTT7=
EXTT8=
EXTT9=
EXTT10=
EXTT11=
PLAYORDER=
